<svg width="136" height="136" viewBox="0 0 136 136" fill="none" xmlns="http://www.w3.org/2000/svg">
<path d="M54.2608 53.1981H27.3572V27.6093H49.0113C51.8985 27.6093 54.2608 25.2473 54.2608 22.3603V0.708313H79.852V27.6093C79.852 41.7816 68.3687 53.1981 54.2608 53.1981ZM27.3572 55.8226H0.453705V81.4113H22.1078C24.995 81.4113 27.3572 83.7734 27.3572 86.6603V108.312H52.9484V81.4113C52.9484 67.2391 41.4652 55.8226 27.3572 55.8226ZM113.383 54.5103C110.496 54.5103 108.133 52.1483 108.133 49.2613V27.6093H82.5423V54.5103C82.5423 68.6826 94.0255 80.0991 108.133 80.0991H135.037V54.5103H113.383ZM55.5732 108.312V135.213H81.1643V113.561C81.1643 110.674 83.5266 108.312 86.4138 108.312H108.068V82.7236H81.1643C66.9907 82.7236 55.5732 94.2057 55.5732 108.312Z" fill="#F0529C" fill-opacity="0.25"/>
</svg>
